<?xml version="1.0" encoding="UTF-8" standalone="no"?>
<!-- Created with Inkscape (http://www.inkscape.org/) -->

<svg
   xmlns:dc="http://purl.org/dc/elements/1.1/"
   xmlns:cc="http://creativecommons.org/ns#"
   xmlns:rdf="http://www.w3.org/1999/02/22-rdf-syntax-ns#"
   xmlns:svg="http://www.w3.org/2000/svg"
   xmlns="http://www.w3.org/2000/svg"
   xmlns:xlink="http://www.w3.org/1999/xlink"
   xmlns:sodipodi="http://sodipodi.sourceforge.net/DTD/sodipodi-0.dtd"
   xmlns:inkscape="http://www.inkscape.org/namespaces/inkscape"
   width="319.17307"
   height="313.17737"
   id="svg7075"
   version="1.1"
   inkscape:version="0.47pre4 r22446"
   sodipodi:docname="Documento nuevo 15">
  <defs
     id="defs7077">
    <inkscape:perspective
       sodipodi:type="inkscape:persp3d"
       inkscape:vp_x="0 : 526.18109 : 1"
       inkscape:vp_y="0 : 1000 : 0"
       inkscape:vp_z="744.09448 : 526.18109 : 1"
       inkscape:persp3d-origin="372.04724 : 350.78739 : 1"
       id="perspective7083" />
    <inkscape:perspective
       id="perspective7004"
       inkscape:persp3d-origin="0.5 : 0.33333333 : 1"
       inkscape:vp_z="1 : 0.5 : 1"
       inkscape:vp_y="0 : 1000 : 0"
       inkscape:vp_x="0 : 0.5 : 1"
       sodipodi:type="inkscape:persp3d" />
    <linearGradient
       inkscape:collect="always"
       xlink:href="#linearGradient9462"
       id="linearGradient6357"
       gradientUnits="userSpaceOnUse"
       x1="72.832001"
       y1="20.394878"
       x2="72.832001"
       y2="36.658333" />
    <linearGradient
       inkscape:collect="always"
       id="linearGradient9462">
      <stop
         style="stop-color:#a40000;stop-opacity:1"
         offset="0"
         id="stop9464" />
      <stop
         style="stop-color:#ef2929;stop-opacity:1"
         offset="1"
         id="stop9466" />
    </linearGradient>
    <linearGradient
       inkscape:collect="always"
       xlink:href="#linearGradient9462"
       id="linearGradient6359"
       gradientUnits="userSpaceOnUse"
       x1="72.832001"
       y1="20.394878"
       x2="72.832001"
       y2="36.658333" />
    <linearGradient
       inkscape:collect="always"
       xlink:href="#linearGradient9462"
       id="linearGradient6361"
       gradientUnits="userSpaceOnUse"
       x1="72.832001"
       y1="20.394878"
       x2="72.832001"
       y2="36.658333" />
    <linearGradient
       inkscape:collect="always"
       xlink:href="#linearGradient9462"
       id="linearGradient6363"
       gradientUnits="userSpaceOnUse"
       x1="72.832001"
       y1="20.394878"
       x2="72.832001"
       y2="36.658333" />
    <radialGradient
       inkscape:collect="always"
       xlink:href="#linearGradient9498"
       id="radialGradient6365"
       gradientUnits="userSpaceOnUse"
       gradientTransform="matrix(1,0,0,0.84931512,0,14.207706)"
       cx="103.59114"
       cy="94.287537"
       fx="103.59114"
       fy="94.287537"
       r="25.809397" />
    <linearGradient
       inkscape:collect="always"
       id="linearGradient9498">
      <stop
         style="stop-color:#ffffff;stop-opacity:1;"
         offset="0"
         id="stop9500" />
      <stop
         style="stop-color:#ffffff;stop-opacity:0;"
         offset="1"
         id="stop9502" />
    </linearGradient>
    <filter
       color-interpolation-filters="sRGB"
       inkscape:collect="always"
       id="filter9518">
      <feGaussianBlur
         inkscape:collect="always"
         stdDeviation="0.71376063"
         id="feGaussianBlur9520" />
    </filter>
    <radialGradient
       inkscape:collect="always"
       xlink:href="#linearGradient9498"
       id="radialGradient6367"
       gradientUnits="userSpaceOnUse"
       gradientTransform="matrix(1,0,0,0.84931512,0,14.207706)"
       cx="103.59114"
       cy="94.287537"
       fx="103.59114"
       fy="94.287537"
       r="25.809397" />
    <linearGradient
       inkscape:collect="always"
       xlink:href="#linearGradient9356"
       id="linearGradient6285"
       gradientUnits="userSpaceOnUse"
       gradientTransform="matrix(4,0,0,4,-715.14493,-1918.8008)"
       x1="264.28571"
       y1="573.26208"
       x2="264.28571"
       y2="649.31946" />
    <linearGradient
       inkscape:collect="always"
       id="linearGradient9356">
      <stop
         style="stop-color:#f9f8f8;stop-opacity:1"
         offset="0"
         id="stop9358" />
      <stop
         id="stop9364"
         offset="0.07006675"
         style="stop-color:#ececec;stop-opacity:1" />
      <stop
         style="stop-color:#e8e7e7;stop-opacity:1"
         offset="0.93328261"
         id="stop9366" />
      <stop
         style="stop-color:#b4b3b4;stop-opacity:1"
         offset="1"
         id="stop9360" />
    </linearGradient>
    <linearGradient
       inkscape:collect="always"
       xlink:href="#linearGradient9376"
       id="linearGradient6287"
       gradientUnits="userSpaceOnUse"
       gradientTransform="matrix(4,0,0,4,-715.14493,-1918.8008)"
       x1="248.757"
       y1="634.69067"
       x2="249.81441"
       y2="664.505" />
    <linearGradient
       inkscape:collect="always"
       id="linearGradient9376">
      <stop
         style="stop-color:#dad9d9;stop-opacity:1;"
         offset="0"
         id="stop9378" />
      <stop
         id="stop9384"
         offset="0.27966022"
         style="stop-color:#dad9d9;stop-opacity:1" />
      <stop
         style="stop-color:#000000;stop-opacity:1"
         offset="1"
         id="stop9380" />
    </linearGradient>
    <filter
       color-interpolation-filters="sRGB"
       inkscape:collect="always"
       id="filter10343">
      <feGaussianBlur
         inkscape:collect="always"
         stdDeviation="0.74285713"
         id="feGaussianBlur10345" />
    </filter>
  </defs>
  <sodipodi:namedview
     id="base"
     pagecolor="#ffffff"
     bordercolor="#666666"
     borderopacity="1.0"
     inkscape:pageopacity="0.0"
     inkscape:pageshadow="2"
     inkscape:zoom="0.35"
     inkscape:cx="159.58653"
     inkscape:cy="156.58872"
     inkscape:document-units="px"
     inkscape:current-layer="layer1"
     showgrid="false"
     inkscape:window-width="613"
     inkscape:window-height="504"
     inkscape:window-x="1"
     inkscape:window-y="78"
     inkscape:window-maximized="0" />
  <metadata
     id="metadata7080">
    <rdf:RDF>
      <cc:Work
         rdf:about="">
        <dc:format>image/svg+xml</dc:format>
        <dc:type
           rdf:resource="http://purl.org/dc/dcmitype/StillImage" />
        <dc:title></dc:title>
      </cc:Work>
    </rdf:RDF>
  </metadata>
  <g
     inkscape:label="Capa 1"
     inkscape:groupmode="layer"
     id="layer1"
     transform="translate(-190.41347,-375.77354)">
    <rect
       ry="9.2857141"
       y="783.7193"
       x="96.107147"
       height="74.285713"
       width="74.285713"
       id="rect10647"
       style="opacity:0.72244903;fill:#888a85;fill-opacity:1;stroke:#888a85;stroke-width:0.44291338;stroke-miterlimit:4;stroke-opacity:1;stroke-dasharray:none;filter:url(#filter10343)"
       transform="matrix(4,0,0,4,-180.00217,-2751.0864)" />
    <rect
       style="fill:url(#linearGradient6285);fill-opacity:1;stroke:url(#linearGradient6287);stroke-width:1.77165353;stroke-miterlimit:4;stroke-opacity:1;stroke-dasharray:none"
       id="rect10649"
       width="297.14285"
       height="297.14285"
       x="193.42641"
       y="377.79068"
       ry="37.142857" />
    <path
       transform="matrix(3.4288818,0,0,2.1937586,-70.417176,221.88645)"
       d="m 129.40054,94.287537 c 0,12.106253 -11.55526,21.920313 -25.8094,21.920313 -14.254135,0 -25.809396,-9.81406 -25.809396,-21.920313 0,-12.106254 11.555261,-21.920311 25.809396,-21.920311 14.25414,0 25.8094,9.814057 25.8094,21.920311 z"
       sodipodi:ry="21.920311"
       sodipodi:rx="25.809397"
       sodipodi:cy="94.287537"
       sodipodi:cx="103.59114"
       id="path10651"
       style="opacity:0.76326533;fill:url(#radialGradient6367);fill-opacity:1;stroke:none;filter:url(#filter9518)"
       sodipodi:type="arc" />
    <path
       sodipodi:type="arc"
       style="opacity:0.76326533;fill:url(#radialGradient6365);fill-opacity:1;stroke:none;filter:url(#filter9518)"
       id="path10653"
       sodipodi:cx="103.59114"
       sodipodi:cy="94.287537"
       sodipodi:rx="25.809397"
       sodipodi:ry="21.920311"
       d="m 129.40054,94.287537 c 0,12.106253 -11.55526,21.920313 -25.8094,21.920313 -14.254135,0 -25.809396,-9.81406 -25.809396,-21.920313 0,-12.106254 11.555261,-21.920311 25.809396,-21.920311 14.25414,0 25.8094,9.814057 25.8094,21.920311 z"
       transform="matrix(1.4249037,0,0,1.7581474,299.81175,468.41561)" />
    <path
       transform="matrix(3.5070298,0,0,3.5070298,-1.4261658,330.31861)"
       d="m 80.963729,28.526606 c 0,4.491029 -3.640699,8.131728 -8.131728,8.131728 -4.49103,0 -8.131728,-3.640699 -8.131728,-8.131728 0,-4.49103 3.640698,-8.131729 8.131728,-8.131729 4.491029,0 8.131728,3.640699 8.131728,8.131729 z"
       sodipodi:ry="8.1317282"
       sodipodi:rx="8.1317282"
       sodipodi:cy="28.526606"
       sodipodi:cx="72.832001"
       id="path10661"
       style="fill:url(#linearGradient6363);fill-opacity:1;stroke:none"
       sodipodi:type="arc" />
    <path
       sodipodi:type="arc"
       style="fill:url(#linearGradient6361);fill-opacity:1;stroke:none"
       id="path10663"
       sodipodi:cx="72.832001"
       sodipodi:cy="28.526606"
       sodipodi:rx="8.1317282"
       sodipodi:ry="8.1317282"
       d="m 80.963729,28.526606 c 0,4.491029 -3.640699,8.131728 -8.131728,8.131728 -4.49103,0 -8.131728,-3.640699 -8.131728,-8.131728 0,-4.49103 3.640698,-8.131729 8.131728,-8.131729 4.491029,0 8.131728,3.640699 8.131728,8.131729 z"
       transform="matrix(3.5070298,0,0,3.5070298,174.57384,330.31861)" />
    <path
       transform="matrix(3.5070298,0,0,3.5070298,-1.4261658,514.31861)"
       d="m 80.963729,28.526606 c 0,4.491029 -3.640699,8.131728 -8.131728,8.131728 -4.49103,0 -8.131728,-3.640699 -8.131728,-8.131728 0,-4.49103 3.640698,-8.131729 8.131728,-8.131729 4.491029,0 8.131728,3.640699 8.131728,8.131729 z"
       sodipodi:ry="8.1317282"
       sodipodi:rx="8.1317282"
       sodipodi:cy="28.526606"
       sodipodi:cx="72.832001"
       id="path10665"
       style="fill:url(#linearGradient6359);fill-opacity:1;stroke:none"
       sodipodi:type="arc" />
    <path
       sodipodi:type="arc"
       style="fill:url(#linearGradient6357);fill-opacity:1;stroke:none"
       id="path10667"
       sodipodi:cx="72.832001"
       sodipodi:cy="28.526606"
       sodipodi:rx="8.1317282"
       sodipodi:ry="8.1317282"
       d="m 80.963729,28.526606 c 0,4.491029 -3.640699,8.131728 -8.131728,8.131728 -4.49103,0 -8.131728,-3.640699 -8.131728,-8.131728 0,-4.49103 3.640698,-8.131729 8.131728,-8.131729 4.491029,0 8.131728,3.640699 8.131728,8.131729 z"
       transform="matrix(3.5070298,0,0,3.5070298,174.57384,514.31861)" />
    <path
       id="path10675"
       d="m 401.60451,617.50737 c -0.0972,0.95872 -0.0952,1.8692 -0.0952,2.8536 0,15.75016 12.69064,28.53596 28.4408,28.53596 15.7502,0 28.53604,-12.7858 28.53604,-28.53596 0,-0.9844 0.002,-1.89488 -0.0948,-2.8536 -1.58832,14.24616 -13.77088,25.30188 -28.44092,25.30188 -14.67,0 -26.7574,-11.05572 -28.34572,-25.30188 z"
       style="fill:#ffffff;fill-opacity:1;stroke:none" />
    <path
       style="fill:#ffffff;fill-opacity:1;stroke:none"
       d="m 225.60455,617.50737 c -0.0972,0.95872 -0.0952,1.8692 -0.0952,2.8536 0,15.75016 12.69068,28.53596 28.44084,28.53596 15.7502,0 28.53604,-12.7858 28.53604,-28.53596 0,-0.9844 0.002,-1.89488 -0.0948,-2.8536 -1.5884,14.24616 -13.77088,25.30188 -28.44092,25.30188 -14.67004,0 -26.75744,-11.05572 -28.34572,-25.30188 z"
       id="path10677" />
    <path
       id="path10679"
       d="m 225.60455,433.50737 c -0.0972,0.95872 -0.0952,1.8692 -0.0952,2.8536 0,15.75016 12.69068,28.53596 28.44084,28.53596 15.7502,0 28.53604,-12.7858 28.53604,-28.53596 0,-0.9844 0.002,-1.89488 -0.0948,-2.8536 -1.5884,14.24616 -13.77088,25.30188 -28.44092,25.30188 -14.67004,0 -26.75744,-11.05572 -28.34572,-25.30188 z"
       style="fill:#ffffff;fill-opacity:1;stroke:none" />
    <path
       style="fill:#ffffff;fill-opacity:1;stroke:none"
       d="m 401.60451,433.50737 c -0.0972,0.95872 -0.0952,1.8692 -0.0952,2.8536 0,15.75016 12.69064,28.53596 28.4408,28.53596 15.7502,0 28.53604,-12.7858 28.53604,-28.53596 0,-0.9844 0.002,-1.89488 -0.0948,-2.8536 -1.58832,14.24616 -13.77088,25.30188 -28.44092,25.30188 -14.67,0 -26.7574,-11.05572 -28.34572,-25.30188 z"
       id="path10681" />
  </g>
</svg>
